<svg id="Muestra" xmlns="http://www.w3.org/2000/svg" viewBox="0 0 282.5 282.5"><defs><style>.cls-1{fill:none;stroke:#000;stroke-miterlimit:10;stroke-width:5px;}</style></defs><circle class="cls-1" cx="141.25" cy="141.25" r="138.75"/><circle class="cls-1" cx="141.5" cy="141" r="100"/><path d="M188.19,204.4q-3.91,4.77-3.92,16.56v12.76c0,3.63-.5,6.35-1.52,8.18a4.9,4.9,0,0,1-4.55,2.75v10.53a4.94,4.94,0,0,1,4.55,2.63c1,1.75,1.52,4.39,1.52,7.9v13.73q0,11.73,4,16.3t12.67,4.58v-10.7a5.37,5.37,0,0,1-4.89-2.34q-1.5-2.36-1.5-8V267.59A35.26,35.26,0,0,0,193,256.18a10.89,10.89,0,0,0-4.62-6.15v-.23a11.17,11.17,0,0,0,4.62-6.15,34.11,34.11,0,0,0,1.54-11.19V220.28q0-5,1.6-7.47a5.31,5.31,0,0,1,4.79-2.49v-10.7Q192.11,199.62,188.19,204.4Z" transform="translate(-108.5 -109)"/><path d="M222.84,258.32c-.24.82-.44,1.61-.6,2.36s-.27,1.48-.35,2.15h-.19q-.09-.94-.3-2c-.15-.73-.34-1.51-.59-2.35l-9.18-30.66h-10.7l15,44.06h11.24l15.18-44.06H232Z" transform="translate(-108.5 -109)"/><path d="M251.14,262a5.77,5.77,0,0,0-4.1,1.5,5.24,5.24,0,0,0,0,7.58,6.41,6.41,0,0,0,8.22,0,5,5,0,0,0,1.59-3.79,4.9,4.9,0,0,0-1.61-3.79A5.77,5.77,0,0,0,251.14,262Z" transform="translate(-108.5 -109)"/><path d="M291,227.78l-9.13,31.11c-.24.84-.44,1.64-.59,2.41s-.28,1.51-.36,2.2h-.18c-.06-.65-.17-1.34-.31-2.09s-.34-1.53-.58-2.39l-9.19-31.24H260l15,44.89H286.2l15.18-44.89Z" transform="translate(-108.5 -109)"/><path d="M319.42,241.93c-1-1.81-1.54-4.51-1.54-8.09V220.73q0-11.55-3.91-16.33t-12.64-4.78v10.7a5.32,5.32,0,0,1,4.8,2.49q1.61,2.49,1.6,7.47V232a36.27,36.27,0,0,0,1.54,11.61,11.18,11.18,0,0,0,4.58,6.29v.23a10.63,10.63,0,0,0-4.58,6,33.3,33.3,0,0,0-1.54,11.13v12.19q0,5.55-1.52,7.86a5.39,5.39,0,0,1-4.88,2.32v10.7q8.76,0,12.66-4.58t3.89-16.65V265.88c0-3.59.52-6.27,1.54-8a5,5,0,0,1,4.58-2.66V244.65A5,5,0,0,1,319.42,241.93Z" transform="translate(-108.5 -109)"/><path d="M146.55,289l-15,4.54-1.22-4q-1.19-3.92,0-6.47a7.41,7.41,0,0,1,4.88-3.65,7.73,7.73,0,0,1,6.28.48,8.58,8.58,0,0,1,3.89,5.29Zm-14.2,2.73,12.5-3.78-.7-2.33a7.25,7.25,0,0,0-3.16-4.45,6.56,6.56,0,0,0-5.27-.31,6.19,6.19,0,0,0-4.1,3,7.33,7.33,0,0,0,0,5.35Z" transform="translate(-108.5 -109)"/><path d="M135.71,266.66l1.39,8.12a4.67,4.67,0,0,0,3.11-1.64,3.79,3.79,0,0,0,.6-3,5.49,5.49,0,0,0-.52-1.54,5.41,5.41,0,0,0-1.07-1.42l.87-.87a7,7,0,0,1,1.28,1.72,7.12,7.12,0,0,1,.66,2.06,5.11,5.11,0,0,1-.79,4,6,6,0,0,1-4.07,2.19,6.26,6.26,0,0,1-4.43-.7,4.69,4.69,0,0,1-2.28-3.4,4.09,4.09,0,0,1,.87-3.55,6.07,6.07,0,0,1,3.72-1.84Zm-.93,1.65a4.29,4.29,0,0,0-2.53,1.31,2.79,2.79,0,0,0-.58,2.39,3.27,3.27,0,0,0,1.38,2.23,4.45,4.45,0,0,0,2.87.71Z" transform="translate(-108.5 -109)"/><path d="M140.07,264.49l-1.15-.6a7,7,0,0,0,.6-1.44,4.7,4.7,0,0,0,.15-1.61A3,3,0,0,0,139,259a1.83,1.83,0,0,0-1.55-.54,1.66,1.66,0,0,0-1.2.63,4.82,4.82,0,0,0-.77,2,5.9,5.9,0,0,1-1.11,2.77,2.6,2.6,0,0,1-1.83.88,2.82,2.82,0,0,1-2.32-.84,4.14,4.14,0,0,1-1.08-2.69,6,6,0,0,1,.08-1.64,5.66,5.66,0,0,1,.59-1.65l1.13.58a5.9,5.9,0,0,0-.49,1.34,4.53,4.53,0,0,0-.1,1.32,2.79,2.79,0,0,0,.61,1.72,1.53,1.53,0,0,0,1.32.51,1.42,1.42,0,0,0,1.17-.64,5.73,5.73,0,0,0,.68-2,6.75,6.75,0,0,1,1.1-2.7,2.65,2.65,0,0,1,2-1,3.09,3.09,0,0,1,2.55.87,4.37,4.37,0,0,1,1.12,2.85,6.57,6.57,0,0,1-.12,1.93A6.32,6.32,0,0,1,140.07,264.49Z" transform="translate(-108.5 -109)"/><path d="M126.34,253.82a1.09,1.09,0,0,1-.3.78,1,1,0,0,1-.77.33,1,1,0,0,1-.76-.31,1.07,1.07,0,0,1-.32-.78,1.13,1.13,0,0,1,.3-.79,1,1,0,0,1,.75-.33,1.06,1.06,0,0,1,.78.31A1.11,1.11,0,0,1,126.34,253.82Zm13.94-.89,0,1.42-11.21.15,0-1.42Z" transform="translate(-108.5 -109)"/><path d="M140.81,240.46l-.09,1.42-6.45-.42a4.88,4.88,0,0,0-2.9.51,2.46,2.46,0,0,0-1.08,2,3.17,3.17,0,0,0,.94,2.55,4,4,0,0,0,2.68,1.15l6.41.41-.09,1.42-11.2-.72.09-1.42,1.95.13v-.05a4.39,4.39,0,0,1-1.56-1.69,4.28,4.28,0,0,1-.41-2.26,3.49,3.49,0,0,1,1.38-2.76A5.36,5.36,0,0,1,134,240Z" transform="translate(-108.5 -109)"/><path d="M142.21,228.08a6,6,0,0,1,4.1,2.21,5.57,5.57,0,0,1,.73,4.33,9.75,9.75,0,0,1-.58,2,9.33,9.33,0,0,1-1.05,1.8l-1-.73a8.81,8.81,0,0,0,.91-1.57,7.82,7.82,0,0,0,.5-1.75,4.24,4.24,0,0,0-.51-3.17,4.45,4.45,0,0,0-3.1-1.7l-1.55-.27v0a4.32,4.32,0,0,1,1.34,1.93,4.72,4.72,0,0,1,.13,2.41,4.38,4.38,0,0,1-2.06,3.11,6,6,0,0,1-4.28.57,6.71,6.71,0,0,1-4.12-2.19,4.67,4.67,0,0,1-1-4,4.26,4.26,0,0,1,.84-2,3.9,3.9,0,0,1,1.69-1.17v0l-1.64-.29.25-1.4Zm-4.43.65-1.91-.34a3.4,3.4,0,0,0-2.56.52,3.23,3.23,0,0,0-1.44,2.25,3.53,3.53,0,0,0,.74,3,5.44,5.44,0,0,0,3.34,1.66,5,5,0,0,0,3.48-.37A3.28,3.28,0,0,0,141,233.1a3.46,3.46,0,0,0-.63-2.86A3.93,3.93,0,0,0,137.78,228.73Z" transform="translate(-108.5 -109)"/><path d="M137.27,196.26l12.89,10.08-.58,1.45-12.09-1.16c-.29,0-.56-.08-.81-.13a4.73,4.73,0,0,1-.72-.18v0a4.85,4.85,0,0,1,.6.35,6.91,6.91,0,0,1,.68.5l9.53,7.63-.57,1.42-16.33-1.46.61-1.53,12.74,1.31.78.11a6.76,6.76,0,0,1,.71.16l0,0c-.15-.08-.32-.2-.53-.34s-.45-.33-.71-.55l-10.06-8,.44-1.09,12.77,1.34q.39,0,.75.09c.24,0,.47.09.7.15l0,0a4.52,4.52,0,0,1-.44-.26l-.51-.37-10.47-8Z" transform="translate(-108.5 -109)"/><path d="M152.31,191l-4.06,7.17a4.68,4.68,0,0,0,3.45.7,3.8,3.8,0,0,0,2.35-1.94,5.14,5.14,0,0,0,.57-1.52,5.5,5.5,0,0,0,.08-1.78l1.23-.12a7.16,7.16,0,0,1-.11,2.14,6.72,6.72,0,0,1-.79,2,5.12,5.12,0,0,1-3.13,2.59,6,6,0,0,1-4.54-.88,6.31,6.31,0,0,1-3-3.35,4.7,4.7,0,0,1,.4-4.07,4.08,4.08,0,0,1,2.91-2.21,6.14,6.14,0,0,1,4,.93Zm-1.76.69a4.3,4.3,0,0,0-2.79-.59,2.79,2.79,0,0,0-2,1.48,3.28,3.28,0,0,0-.34,2.6,4.4,4.4,0,0,0,1.77,2.37Z" transform="translate(-108.5 -109)"/><path d="M157.76,189.48l0,0,1.4,1-.83,1.16L144.82,182l.83-1.16,6.1,4.39,0,0a4.5,4.5,0,0,1,.43-4.73,4.2,4.2,0,0,1,3.21-1.9,6.12,6.12,0,0,1,4,1.34,7,7,0,0,1,2.86,3.79,4.6,4.6,0,0,1-.8,4,4.22,4.22,0,0,1-1.62,1.41A4.09,4.09,0,0,1,157.76,189.48Zm-3.63-2.55,1.21.87a3.71,3.71,0,0,0,2.71.72,3.29,3.29,0,0,0,2.39-1.46,3.2,3.2,0,0,0,.49-3,6,6,0,0,0-2.39-3,4.76,4.76,0,0,0-3.1-1.07A3.09,3.09,0,0,0,153,181.4a3.52,3.52,0,0,0-.67,3A4.39,4.39,0,0,0,154.13,186.93Z" transform="translate(-108.5 -109)"/><path d="M165.59,173.1l-.86-.84,4.25-4.34.85.84Z" transform="translate(-108.5 -109)"/><path d="M181.86,146.29l4.93,15.9-3.16,2.35-13.74-9.36,3-2.24,9.31,6.84c.24.18.45.36.65.53s.37.35.54.52l0,0c-.12-.22-.24-.45-.35-.7s-.22-.51-.32-.8l-3.83-10.85Z" transform="translate(-108.5 -109)"/><path d="M186.12,145.91a1.06,1.06,0,0,1-.83.14,1.08,1.08,0,0,1-.8-1.3,1.1,1.1,0,0,1,.51-.67,1.11,1.11,0,0,1,.83-.15,1,1,0,0,1,.67.47,1,1,0,0,1,.13.83A1.06,1.06,0,0,1,186.12,145.91Zm7.9,11.53-1.21.74-5.87-9.56,1.21-.74Z" transform="translate(-108.5 -109)"/><path d="M203.54,151.49a6.42,6.42,0,0,1-1,1.33,7.17,7.17,0,0,1-1.41,1,5.13,5.13,0,0,1-4.11.44,5.67,5.67,0,0,1-3.24-3,6.27,6.27,0,0,1-.65-4.63A5.44,5.44,0,0,1,196,143.2a6.47,6.47,0,0,1,1.42-.54,7.12,7.12,0,0,1,1.58-.19l0,1.23a6.23,6.23,0,0,0-1.27.15,5.55,5.55,0,0,0-1.19.47,3.8,3.8,0,0,0-2.11,2.61,5,5,0,0,0,.59,3.53,4.83,4.83,0,0,0,2.53,2.47,3.7,3.7,0,0,0,3.1-.27,4.59,4.59,0,0,0,1-.73,4.89,4.89,0,0,0,.85-1.07Z" transform="translate(-108.5 -109)"/><path d="M210.42,149a4.5,4.5,0,0,1-.67.64,5.52,5.52,0,0,1-.88.49,2.55,2.55,0,0,1-2.05.09,3,3,0,0,1-1.48-1.69l-2.92-6.75-1.83.79-.49-1.13,1.84-.79-1.13-2.61,1.12-1,1.31,3,2.7-1.17.49,1.13-2.7,1.16,2.85,6.6a2.18,2.18,0,0,0,.88,1.14,1.33,1.33,0,0,0,1.15,0,3.06,3.06,0,0,0,.59-.35,4.16,4.16,0,0,0,.42-.42Z" transform="translate(-108.5 -109)"/><path d="M216.78,147.24a5.16,5.16,0,0,1-4.29-.26,5.89,5.89,0,0,1-2.71-3.51,6,6,0,0,1,.09-4.65,5.52,5.52,0,0,1,3.41-2.8,5,5,0,0,1,4.21.26,6.13,6.13,0,0,1,2.7,3.65,6,6,0,0,1-.08,4.52A5.24,5.24,0,0,1,216.78,147.24Zm-.3-1.18a3.61,3.61,0,0,0,2.41-2.08,5.13,5.13,0,0,0-.09-3.57,5.21,5.21,0,0,0-2.06-3,3.66,3.66,0,0,0-3.16-.24,3.82,3.82,0,0,0-2.45,2.14,5,5,0,0,0,0,3.65,4.82,4.82,0,0,0,2.09,2.83A3.78,3.78,0,0,0,216.48,146.06Z" transform="translate(-108.5 -109)"/><path d="M227.43,133.78a2.57,2.57,0,0,0-.47,0,2.72,2.72,0,0,0-2.38,1.83,6.14,6.14,0,0,0-.06,3.48l1.24,5.36-1.37.31-2.53-10.92,1.37-.32.53,2.29h.05a3.8,3.8,0,0,1,.76-2.11,3,3,0,0,1,1.76-1.09l.53-.09a2.79,2.79,0,0,1,.5,0Z" transform="translate(-108.5 -109)"/><path d="M237.81,142.18l-1.31-15.65,4.35-.36a4.82,4.82,0,0,1,3.26.71,3.26,3.26,0,0,1,1.39,2.53,3.83,3.83,0,0,1-.53,2.37,4,4,0,0,1-1.86,1.6v0a3.87,3.87,0,0,1,2.59,1,3.69,3.69,0,0,1,1.14,2.49,4.17,4.17,0,0,1-1.11,3.35,5.13,5.13,0,0,1-3.47,1.55Zm.29-14.45.46,5.55,2.1-.17a3.94,3.94,0,0,0,2.53-1,2.69,2.69,0,0,0,.78-2.28,2.3,2.3,0,0,0-1-1.85,4,4,0,0,0-2.5-.43Zm.57,6.87.51,6.14,2.74-.23a4.05,4.05,0,0,0,2.63-1,2.93,2.93,0,0,0,.75-2.39,2.64,2.64,0,0,0-1.21-2.17,5.28,5.28,0,0,0-3.14-.49Z" transform="translate(-108.5 -109)"/><path d="M258.91,136.21l-8.24-.2a4.72,4.72,0,0,0,1,3.37,3.84,3.84,0,0,0,2.82,1.16,5.32,5.32,0,0,0,1.62-.22,5.46,5.46,0,0,0,1.6-.77l.69,1a6.94,6.94,0,0,1-1.94.91,7,7,0,0,1-2.15.26,5.13,5.13,0,0,1-3.76-1.55,6,6,0,0,1-1.36-4.41,6.27,6.27,0,0,1,1.54-4.22,4.73,4.73,0,0,1,3.78-1.57,4.06,4.06,0,0,1,3.32,1.53,6.16,6.16,0,0,1,1.09,4ZM257.47,135a4.28,4.28,0,0,0-.8-2.74,2.79,2.79,0,0,0-2.22-1,3.35,3.35,0,0,0-2.46.92,4.44,4.44,0,0,0-1.25,2.69Z" transform="translate(-108.5 -109)"/><path d="M267.71,132.53a2.39,2.39,0,0,0-.43-.17,2.1,2.1,0,0,0-.46-.08,2.59,2.59,0,0,0-2.39,1,6.07,6.07,0,0,0-1.21,3.26l-.6,5.47-1.4-.15,1.22-11.15,1.4.15-.25,2.34h0a3.82,3.82,0,0,1,1.42-1.75,3,3,0,0,1,2-.44,3.89,3.89,0,0,1,.53.09,3.23,3.23,0,0,1,.47.15Z" transform="translate(-108.5 -109)"/><path d="M277.49,144.52l-1.39-.28,1.27-6.34a4.84,4.84,0,0,0-.12-2.94,2.48,2.48,0,0,0-1.88-1.35,3.18,3.18,0,0,0-2.65.59,4,4,0,0,0-1.5,2.51L270,143l-1.4-.28,2.21-11,1.4.28-.39,1.91h.05A4.07,4.07,0,0,1,276,132.5a3.44,3.44,0,0,1,2.55,1.73,5.31,5.31,0,0,1,.29,3.57Z" transform="translate(-108.5 -109)"/><path d="M288,147.69l-1.36-.43.6-1.91h0a4.34,4.34,0,0,1-1.95,1.14,4,4,0,0,1-2.24-.08,3.66,3.66,0,0,1-2.19-1.64,3.35,3.35,0,0,1,1.41-4.5,5.49,5.49,0,0,1,3.25-.25l3.27.54.09-.29a3.25,3.25,0,0,0,0-2.34,2.53,2.53,0,0,0-1.61-1.25,4.92,4.92,0,0,0-1.81-.22,5,5,0,0,0-1.81.52l-.55-1.09a6.05,6.05,0,0,1,2.25-.65,6.11,6.11,0,0,1,2.35.3,3.93,3.93,0,0,1,2.53,1.91,4.45,4.45,0,0,1,0,3.29Zm.07-5,.33-1.06-2.94-.48a4.72,4.72,0,0,0-2.33.05,1.92,1.92,0,0,0-1.12,1.32,2.07,2.07,0,0,0,.13,1.7,2.36,2.36,0,0,0,1.42,1.07,3.27,3.27,0,0,0,2.74-.27A4,4,0,0,0,288.05,142.73Z" transform="translate(-108.5 -109)"/><path d="M299.72,141.65a2.12,2.12,0,0,0-.37-.28,2.74,2.74,0,0,0-.42-.21,2.6,2.6,0,0,0-2.58.32,6.08,6.08,0,0,0-2.06,2.8l-2.09,5.09-1.31-.54,4.26-10.37,1.31.54-.9,2.17,0,0a3.74,3.74,0,0,1,1.85-1.28,3,3,0,0,1,2.07.13,4.3,4.3,0,0,1,.48.23,4.21,4.21,0,0,1,.41.28Z" transform="translate(-108.5 -109)"/><path d="M305.67,153.62a4.14,4.14,0,0,1-2.21.71,4.82,4.82,0,0,1-2.38-.59,4.32,4.32,0,0,1-2.33-2.93,6.09,6.09,0,0,1,.76-4.27,6.6,6.6,0,0,1,3.33-3.26,4.78,4.78,0,0,1,4.13.27,4.21,4.21,0,0,1,1.64,1.42,3.64,3.64,0,0,1,.58,1.95l0,0,3.29-6.25,1.26.66-7.72,14.7-1.26-.66.91-1.75Zm-4.82-6.48a5.08,5.08,0,0,0-.67,3.4,3.2,3.2,0,0,0,1.73,2.26,3.47,3.47,0,0,0,3,.27,4.06,4.06,0,0,0,2.21-2l.87-1.66a3.49,3.49,0,0,0,.3-2.64,3.3,3.3,0,0,0-1.75-2.07,3.43,3.43,0,0,0-3.07-.16A5.37,5.37,0,0,0,300.85,147.14Z" transform="translate(-108.5 -109)"/><path d="M312.51,160.57a5.19,5.19,0,0,1-2.39-3.57,5.88,5.88,0,0,1,1.15-4.28A6,6,0,0,1,315,150a5.51,5.51,0,0,1,4.3,1,5,5,0,0,1,2.34,3.5,6.16,6.16,0,0,1-1.27,4.36,6,6,0,0,1-3.64,2.68A5.25,5.25,0,0,1,312.51,160.57Zm.75-.95a3.65,3.65,0,0,0,3.12.66,5.14,5.14,0,0,0,2.79-2.24,5.21,5.21,0,0,0,1.11-3.44,3.67,3.67,0,0,0-1.72-2.66,3.8,3.8,0,0,0-3.18-.65,5.07,5.07,0,0,0-2.89,2.24,4.82,4.82,0,0,0-1,3.37A3.78,3.78,0,0,0,313.26,159.62Z" transform="translate(-108.5 -109)"/><path d="M332.14,176.29a10.28,10.28,0,0,1-2.05-1,11,11,0,0,1-1.77-1.44,7.17,7.17,0,0,1-2.37-5.39,7.9,7.9,0,0,1,2.54-5.44,8.36,8.36,0,0,1,5.91-2.77,7.73,7.73,0,0,1,5.72,2.44,10.9,10.9,0,0,1,1.26,1.5,10.62,10.62,0,0,1,.94,1.78l-1.23.49a10,10,0,0,0-.82-1.53,9.59,9.59,0,0,0-1.12-1.34,6.11,6.11,0,0,0-4.64-1.93,7.16,7.16,0,0,0-4.85,2.37,6.68,6.68,0,0,0-2.19,4.61,5.73,5.73,0,0,0,1.84,4.33,8.74,8.74,0,0,0,1.49,1.19,8.51,8.51,0,0,0,1.79.87Z" transform="translate(-108.5 -109)"/><path d="M338.81,185.81l-.87-1.12,5.2-4.05a4.55,4.55,0,0,0,1.77-2.25,2.54,2.54,0,0,0-.6-2.25A3.19,3.19,0,0,0,342,174.9a4,4,0,0,0-2.92,1l-5,3.86-.87-1.12,13.11-10.19.88,1.12-5.79,4.5,0,0a4.46,4.46,0,0,1,2.3.26,4.27,4.27,0,0,1,1.79,1.4,3.52,3.52,0,0,1,.84,3,5.26,5.26,0,0,1-2.1,2.85Z" transform="translate(-108.5 -109)"/><path d="M344.83,195l-.76-1.2,1.69-1.08,0,0a4.38,4.38,0,0,1-2.23-.39,4,4,0,0,1-1.65-1.51,3.63,3.63,0,0,1-.61-2.67,3.34,3.34,0,0,1,4-2.52,5.48,5.48,0,0,1,2.65,1.91l2.14,2.53.25-.16a3.32,3.32,0,0,0,1.5-1.8,2.52,2.52,0,0,0-.42-2,4.65,4.65,0,0,0-1.24-1.33,5,5,0,0,0-1.71-.78l.28-1.19a5.85,5.85,0,0,1,3.73,2.71,3.9,3.9,0,0,1,.7,3.09,4.34,4.34,0,0,1-2.11,2.52Zm3.26-3.74.93-.59-1.92-2.27a4.61,4.61,0,0,0-1.82-1.47,2,2,0,0,0-1.7.28,2.06,2.06,0,0,0-1,1.39,2.31,2.31,0,0,0,.39,1.72,3.28,3.28,0,0,0,2.26,1.58A4,4,0,0,0,348.09,191.29Z" transform="translate(-108.5 -109)"/><path d="M350.33,205.86l-.62-1.27,5.8-2.84a4.8,4.8,0,0,0,2.26-1.89,2.43,2.43,0,0,0-.06-2.31,3.2,3.2,0,0,0-2.08-1.74,4,4,0,0,0-2.91.33L347,199l-.63-1.28,10.08-4.93L357,194l-1.75.86,0,0a4.31,4.31,0,0,1,2.2.69,4.43,4.43,0,0,1,1.47,1.76,3.41,3.41,0,0,1,.17,3.08,5.29,5.29,0,0,1-2.66,2.4Z" transform="translate(-108.5 -109)"/><path d="M372.32,222.8l-16.61-1.1-1.06-3.79,13.66-9.47,1,3.61-9.72,6.24c-.25.16-.5.29-.73.41s-.46.23-.68.32v0c.25,0,.51-.06.78-.08s.56,0,.86,0l11.5.31Z" transform="translate(-108.5 -109)"/><path d="M358.52,236.52l-.22-1.41,2-.3v0a4.3,4.3,0,0,1-1.89-1.25,4,4,0,0,1-.91-2.05,3.61,3.61,0,0,1,.51-2.68,3.1,3.1,0,0,1,2.18-1.32,3.16,3.16,0,0,1,2.48.6,5.54,5.54,0,0,1,1.66,2.81l.95,3.17.3,0a3.27,3.27,0,0,0,2.09-1,2.5,2.5,0,0,0,.41-2,4.58,4.58,0,0,0-.6-1.72,4.7,4.7,0,0,0-1.26-1.39l.74-1a6,6,0,0,1,1.57,1.74,6.2,6.2,0,0,1,.77,2.23,4,4,0,0,1-.61,3.11,4.38,4.38,0,0,1-2.94,1.47ZM363,234.4l1.1-.17-.86-2.85a4.58,4.58,0,0,0-1.08-2.07,1.89,1.89,0,0,0-1.67-.42,2.1,2.1,0,0,0-1.48.86,2.4,2.4,0,0,0-.33,1.74,3.29,3.29,0,0,0,1.45,2.35A3.92,3.92,0,0,0,363,234.4Z" transform="translate(-108.5 -109)"/><path d="M369.11,244.39a4.47,4.47,0,0,0,.09-.45,3.68,3.68,0,0,0,0-.47,2.58,2.58,0,0,0-1.43-2.17,5.93,5.93,0,0,0-3.42-.62l-5.49.36-.09-1.41,11.19-.74.09,1.41-2.34.15v.05a3.76,3.76,0,0,1,2,1.09,3,3,0,0,1,.79,1.91,3.3,3.3,0,0,1,0,.54,3.85,3.85,0,0,1-.07.49Z" transform="translate(-108.5 -109)"/><path d="M359.62,256.42a6,6,0,0,1-4.39-1.58,5.54,5.54,0,0,1-1.37-4.17,9.6,9.6,0,0,1,.27-2.08,9.31,9.31,0,0,1,.77-1.94l1.09.57a8.67,8.67,0,0,0-.67,1.7,7.63,7.63,0,0,0-.23,1.8,4.16,4.16,0,0,0,1,3.05,4.4,4.4,0,0,0,3.31,1.22l1.58,0V255a4.39,4.39,0,0,1-1.62-1.7,4.87,4.87,0,0,1-.49-2.37,4.37,4.37,0,0,1,1.57-3.38,6,6,0,0,1,4.15-1.21,6.69,6.69,0,0,1,4.4,1.55,4.67,4.67,0,0,1,1.62,3.83,4.24,4.24,0,0,1-.54,2.07,3.83,3.83,0,0,1-1.49,1.41v0l1.66.05,0,1.42Zm4.28-1.32,1.94.05a3.36,3.36,0,0,0,2.46-.91,3.29,3.29,0,0,0,1.08-2.43,3.51,3.51,0,0,0-1.19-2.87,5.42,5.42,0,0,0-3.55-1.15,5,5,0,0,0-3.39.89,3.33,3.33,0,0,0-1.18,2.59,3.47,3.47,0,0,0,1.05,2.73A4,4,0,0,0,363.9,255.1Z" transform="translate(-108.5 -109)"/><path d="M357.47,268.43l.2-1.41,1.88.26v0a4.16,4.16,0,0,1-1.41-1.69,4.1,4.1,0,0,1-.24-2.17,3.73,3.73,0,0,1,1.63-2.84,5.65,5.65,0,0,1,3.77-.49l6.53.91-.2,1.41-6.26-.87a4.92,4.92,0,0,0-3.05.3,2.62,2.62,0,0,0-1.26,2.08,3,3,0,0,0,.72,2.5,4.07,4.07,0,0,0,2.64,1.3l6.34.89-.19,1.41Z" transform="translate(-108.5 -109)"/><path d="M359.89,281.58l2-8a4.71,4.71,0,0,0-3.51.24,3.83,3.83,0,0,0-1.75,2.5,5.13,5.13,0,0,0-.14,1.62,5.34,5.34,0,0,0,.4,1.73l-1.15.45a6.89,6.89,0,0,1-.47-2.09,7.15,7.15,0,0,1,.22-2.16,5.15,5.15,0,0,1,2.33-3.32,6,6,0,0,1,4.61-.36,6.22,6.22,0,0,1,3.77,2.43,4.73,4.73,0,0,1,.71,4,4.08,4.08,0,0,1-2.22,2.9,6.13,6.13,0,0,1-4.15.18Zm1.52-1.13a4.29,4.29,0,0,0,2.84-.18,2.78,2.78,0,0,0,1.49-1.95,3.27,3.27,0,0,0-.36-2.6,4.53,4.53,0,0,0-2.34-1.81Z" transform="translate(-108.5 -109)"/><path d="M361.39,293.76l-6.63-10-2.35,6.6-1.15-.42,3.08-8.65.44.16,6.57,9.93,2.2-6.18,1.16.41-2.95,8.26Z" transform="translate(-108.5 -109)"/></svg>