<svg
    xmlns="http://www.w3.org/2000/svg"
    id="Capa_1"
    data-name="Capa 1"
    width="80"
    height="80"
    viewBox="0 0 290 200.29"
    strokeWidth="1.3"
    stroke="#fff"
    fill="#fff"
    strokeLinecap='round'
    strokeLinejoin='round'>
        <path d="M124.88,125.21q-7.8,9.51-7.79,33v25.37q0,10.82-3,16.28a9.74,9.74,0,0,1-9.06,5.46v20.94a9.81,9.81,0,0,1,9.06,5.24q3,5.24,3,15.7v27.31q0,23.32,7.87,32.44t25.2,9.1V294.72q-6.75,0-9.74-4.67t-3-15.82V250.91q0-14-3.06-22.71T125.2,216v-.46q6.12-3.63,9.18-12.23T137.44,181V156.79q0-9.9,3.18-14.85t9.54-4.95V115.71Q132.67,115.71,124.88,125.21Z" transform="translate(-105 -115.71)"/>
        <path d="M193.8,232.46c-.49,1.63-.89,3.19-1.2,4.7s-.54,2.93-.7,4.28h-.37a40.3,40.3,0,0,0-.61-4.07c-.28-1.44-.67-3-1.16-4.67l-18.27-61H150.22l29.83,87.63h22.36l30.19-87.63H212Z" transform="translate(-105 -115.71)"/>
        <path d="M250.08,239.85a11.58,11.58,0,0,0-8.16,3,10.48,10.48,0,0,0,0,15.1,12.77,12.77,0,0,0,16.35,0,10.52,10.52,0,0,0,0-15.1A11.58,11.58,0,0,0,250.08,239.85Z" transform="translate(-105 -115.71)"/>
        <path d="M329.34,171.71,311.19,233.6c-.49,1.66-.88,3.26-1.19,4.8s-.54,3-.7,4.36h-.37a41.69,41.69,0,0,0-.61-4.15c-.28-1.47-.67-3.06-1.16-4.76l-18.27-62.14H267.62L297.44,261h22.37L350,171.71Z" transform="translate(-105 -115.71)"/>
        <path d="M385.9,199.87q-3.07-5.42-3.06-16.11V157.7q0-23-7.8-32.49t-25.12-9.5V137q6.36,0,9.54,4.95t3.18,14.85v23.33q0,14.24,3.06,23.1t9.1,12.52v.46q-6,3.41-9.1,11.89t-3.06,22.13v24.24q0,11-3,15.65t-9.7,4.61V316q17.41,0,25.16-9.1t7.76-33.12V247.49q0-10.69,3.06-16a9.87,9.87,0,0,1,9.1-5.29V205.27A9.85,9.85,0,0,1,385.9,199.87Z" transform="translate(-105 -115.71)"/>
    </svg>